<svg id="svg" xmlns="http://www.w3.org/2000/svg" xmlns:xlink="http://www.w3.org/1999/xlink" width="400" height="400" viewBox="0, 0, 400,400"><g id="svgg"><path id="path0" d="M197.600 105.600 L 197.600 127.200 190.400 127.200 L 183.200 127.200 183.200 137.600 L 183.200 148.000 168.000 148.000 L 152.800 148.000 152.800 137.600 L 152.800 127.200 142.400 127.200 L 132.000 127.200 132.000 147.869 L 132.000 168.539 139.605 171.160 L 147.211 173.782 147.005 230.644 L 146.800 287.507 139.600 290.353 C 132.827 293.031,132.386 293.349,132.156 295.711 L 131.912 298.223 126.156 296.012 L 120.400 293.801 120.196 249.501 L 119.992 205.200 126.413 202.934 L 132.833 200.669 132.617 184.934 L 132.400 169.200 124.600 168.971 L 116.800 168.742 116.800 176.771 L 116.800 184.800 104.800 184.800 L 92.800 184.800 92.800 176.800 L 92.800 168.800 79.600 168.800 L 66.400 168.800 66.400 176.800 L 66.400 184.800 54.800 184.800 L 43.200 184.800 43.200 176.800 L 43.200 168.800 35.600 168.800 L 28.000 168.800 28.000 185.105 L 28.000 201.411 33.400 203.305 L 38.800 205.200 39.007 249.327 L 39.213 293.453 33.607 295.653 L 28.000 297.853 28.000 306.526 L 28.000 315.200 200.027 315.200 L 372.054 315.200 371.827 306.635 L 371.600 298.071 366.000 295.943 L 360.400 293.816 360.193 249.455 L 359.987 205.093 365.793 203.057 L 371.600 201.021 371.817 184.910 L 372.033 168.800 364.417 168.800 L 356.800 168.800 356.800 176.800 L 356.800 184.800 344.800 184.800 L 332.800 184.800 332.800 176.800 L 332.800 168.800 319.600 168.800 L 306.400 168.800 306.400 176.800 L 306.400 184.800 294.829 184.800 L 283.258 184.800 283.029 177.000 L 282.800 169.200 275.000 168.971 L 267.200 168.742 267.200 147.971 L 267.200 127.200 257.200 127.200 L 247.200 127.200 247.200 137.600 L 247.200 148.000 232.000 148.000 L 216.800 148.000 216.800 137.600 L 216.800 127.200 209.200 127.200 L 201.600 127.200 201.600 117.200 L 201.600 107.200 220.400 107.200 L 239.200 107.200 239.200 95.600 L 239.200 84.000 218.400 84.000 L 197.600 84.000 197.600 105.600 M266.400 184.734 L 266.400 200.668 270.200 202.063 C 272.290 202.831,275.170 203.923,276.600 204.489 L 279.200 205.518 279.200 249.461 L 279.200 293.403 273.245 295.828 L 267.290 298.253 267.045 295.727 C 266.814 293.345,266.386 293.036,259.600 290.353 L 252.400 287.507 252.195 230.659 L 251.989 173.812 258.595 171.357 C 262.228 170.006,265.470 168.878,265.800 168.851 C 266.130 168.823,266.400 175.970,266.400 184.734 M207.214 196.556 C 212.754 198.345,219.176 204.212,221.695 209.784 C 223.570 213.933,223.604 214.453,223.854 242.600 L 224.109 271.200 200.054 271.200 L 176.000 271.200 175.996 243.000 C 175.991 210.207,176.107 209.528,182.828 202.720 C 189.609 195.851,198.261 193.664,207.214 196.556 M85.668 222.695 C 96.719 226.646,97.950 230.081,98.245 257.800 L 98.490 280.800 79.599 280.800 L 60.709 280.800 60.954 258.200 C 61.174 237.974,61.357 235.306,62.691 232.800 C 67.454 223.858,77.078 219.625,85.668 222.695 M327.320 223.518 C 337.163 228.197,338.400 232.198,338.400 259.343 L 338.400 280.800 319.600 280.800 L 300.800 280.800 300.800 259.301 C 300.800 235.401,301.193 232.966,305.834 228.135 C 311.825 221.898,320.148 220.109,327.320 223.518 " stroke="none" fill="#000000" fill-rule="evenodd"></path></g></svg>